<svg data-v-423bf9ae="" xmlns="http://www.w3.org/2000/svg" viewBox="0 0 534 90" class="iconLeft"><!----><!----><!----><g data-v-423bf9ae="" id="fe9ec534-5a9a-4323-bc90-ba889525b2c8" fill="black" transform="matrix(6.036217558641619,0,0,6.036217558641619,105.35211087241635,-7.213282687692207)"><path d="M5.87 13.62L5.87 13.62Q4.42 13.62 3.26 12.97L3.26 12.97L3.26 12.97Q2.10 12.32 1.44 11.19L1.44 11.19L1.44 11.19Q0.77 10.05 0.77 8.65L0.77 8.65L0.77 8.65Q0.77 7.25 1.44 6.12L1.44 6.12L1.44 6.12Q2.10 4.98 3.26 4.33L3.26 4.33L3.26 4.33Q4.42 3.68 5.87 3.68L5.87 3.68L5.87 3.68Q7.31 3.68 8.47 4.33L8.47 4.33L8.47 4.33Q9.63 4.97 10.30 6.10L10.30 6.10L10.30 6.10Q10.96 7.24 10.96 8.65L10.96 8.65L10.96 8.65Q10.96 10.07 10.30 11.20L10.30 11.20L10.30 11.20Q9.63 12.33 8.47 12.98L8.47 12.98L8.47 12.98Q7.31 13.62 5.87 13.62L5.87 13.62ZM5.87 12.96L5.87 12.96Q7.10 12.96 8.09 12.40L8.09 12.40L8.09 12.40Q9.09 11.84 9.66 10.86L9.66 10.86L9.66 10.86Q10.23 9.87 10.23 8.65L10.23 8.65L10.23 8.65Q10.23 7.43 9.66 6.45L9.66 6.45L9.66 6.45Q9.09 5.46 8.09 4.90L8.09 4.90L8.09 4.90Q7.10 4.34 5.87 4.34L5.87 4.34L5.87 4.34Q4.63 4.34 3.63 4.90L3.63 4.90L3.63 4.90Q2.63 5.46 2.06 6.45L2.06 6.45L2.06 6.45Q1.48 7.43 1.48 8.65L1.48 8.65L1.48 8.65Q1.48 9.87 2.06 10.86L2.06 10.86L2.06 10.86Q2.63 11.84 3.63 12.40L3.63 12.40L3.63 12.40Q4.63 12.96 5.87 12.96L5.87 12.96ZM16.95 3.75L16.95 3.75Q18.80 3.75 19.85 4.63L19.85 4.63L19.85 4.63Q20.90 5.50 20.90 7.06L20.90 7.06L20.90 7.06Q20.90 8.60 19.85 9.47L19.85 9.47L19.85 9.47Q18.80 10.35 16.95 10.35L16.95 10.35L14.15 10.35L14.15 13.55L13.44 13.55L13.44 3.75L16.95 3.75ZM16.95 9.70L16.95 9.70Q18.52 9.70 19.35 9.02L19.35 9.02L19.35 9.02Q20.17 8.33 20.17 7.06L20.17 7.06L20.17 7.06Q20.17 5.78 19.35 5.09L19.35 5.09L19.35 5.09Q18.52 4.40 16.95 4.40L16.95 4.40L14.15 4.40L14.15 9.70L16.95 9.70ZM24.16 12.91L30.21 12.91L30.21 13.55L23.45 13.55L23.45 3.75L30.00 3.75L30.00 4.40L24.16 4.40L24.16 8.26L29.39 8.26L29.39 8.89L24.16 8.89L24.16 12.91ZM40.08 3.75L40.80 3.75L40.80 13.55L40.21 13.55L33.53 5.04L33.53 13.55L32.82 13.55L32.82 3.75L33.42 3.75L40.08 12.26L40.08 3.75ZM48.36 13.62L48.36 13.62Q46.91 13.62 45.76 12.98L45.76 12.98L45.76 12.98Q44.60 12.33 43.94 11.20L43.94 11.20L43.94 11.20Q43.27 10.07 43.27 8.65L43.27 8.65L43.27 8.65Q43.27 7.24 43.94 6.10L43.94 6.10L43.94 6.10Q44.60 4.97 45.76 4.33L45.76 4.33L45.76 4.33Q46.91 3.68 48.36 3.68L48.36 3.68L48.36 3.68Q49.42 3.68 50.32 4.02L50.32 4.02L50.32 4.02Q51.21 4.37 51.84 5.04L51.84 5.04L51.39 5.50L51.39 5.50Q50.22 4.34 48.38 4.34L48.38 4.34L48.38 4.34Q47.15 4.34 46.14 4.90L46.14 4.90L46.14 4.90Q45.14 5.46 44.56 6.45L44.56 6.45L44.56 6.45Q43.99 7.43 43.99 8.65L43.99 8.65L43.99 8.65Q43.99 9.87 44.56 10.86L44.56 10.86L44.56 10.86Q45.14 11.84 46.14 12.40L46.14 12.40L46.14 12.40Q47.15 12.96 48.38 12.96L48.38 12.96L48.38 12.96Q50.20 12.96 51.39 11.79L51.39 11.79L51.84 12.25L51.84 12.25Q51.21 12.92 50.31 13.27L50.31 13.27L50.31 13.27Q49.41 13.62 48.36 13.62L48.36 13.62ZM61.22 13.55L60.38 13.55L57.01 9.02L53.65 13.55L52.81 13.55L56.57 8.50L53.07 3.75L53.91 3.75L57.04 7.97L60.16 3.75L60.96 3.75L57.46 8.48L61.22 13.55ZM67.37 13.62L67.37 13.62Q65.93 13.62 64.77 12.98L64.77 12.98L64.77 12.98Q63.62 12.33 62.95 11.20L62.95 11.20L62.95 11.20Q62.29 10.07 62.29 8.65L62.29 8.65L62.29 8.65Q62.29 7.24 62.95 6.10L62.95 6.10L62.95 6.10Q63.62 4.97 64.77 4.33L64.77 4.33L64.77 4.33Q65.93 3.68 67.37 3.68L67.37 3.68L67.37 3.68Q68.43 3.68 69.33 4.02L69.33 4.02L69.33 4.02Q70.22 4.37 70.85 5.04L70.85 5.04L70.41 5.50L70.41 5.50Q69.23 4.34 67.40 4.34L67.40 4.34L67.40 4.34Q66.16 4.34 65.16 4.90L65.16 4.90L65.16 4.90Q64.15 5.46 63.57 6.45L63.57 6.45L63.57 6.45Q63.00 7.43 63.00 8.65L63.00 8.65L63.00 8.65Q63.00 9.87 63.57 10.86L63.57 10.86L63.57 10.86Q64.15 11.84 65.16 12.40L65.16 12.40L65.16 12.40Q66.16 12.96 67.40 12.96L67.40 12.96L67.40 12.96Q69.22 12.96 70.41 11.79L70.41 11.79L70.85 12.25L70.85 12.25Q70.22 12.92 69.32 13.27L69.32 13.27L69.32 13.27Q68.42 13.62 67.37 13.62L67.37 13.62Z"></path></g><!----><g data-v-423bf9ae="" id="40491016-88d5-4272-b9d7-9e9b989a9746" transform="matrix(2.8125,0,0,2.8125,0,0)" stroke="none" fill="black"><circle cx="16" cy="16.021" r="8.066"></circle><path d="M32 0H0v32h32V0zM16 26.086c-5.551 0-10.066-4.516-10.066-10.065 0-5.55 4.516-10.066 10.066-10.066 5.55 0 10.065 4.516 10.065 10.066.001 5.55-4.515 10.065-10.065 10.065z"></path></g><!----></svg>